<svg width="49" height="49" viewBox="0 0 49 49" fill="none" xmlns="http://www.w3.org/2000/svg">
    <path d="M24.5 49C38.031 49 49 38.031 49 24.5C49 10.969 38.031 0 24.5 0C10.969 0 0 10.969 0 24.5C0 38.031 10.969 49 24.5 49Z" fill="#FF006A"/>
    <path d="M30.0534 23.7242C29.8112 23.7667 29.5659 23.7891 29.32 23.7912C28.8811 23.8018 28.448 23.6886 28.0705 23.4645C28.0061 23.4188 27.9325 23.3876 27.8549 23.373C27.8157 23.3703 27.7765 23.3703 27.7373 23.373C27.4675 23.3738 27.2035 23.4514 26.9762 23.5968C27.073 23.7283 27.1772 23.8542 27.2881 23.9741C27.5854 24.3106 27.9562 24.7287 28.1407 25.2889C28.2648 25.7207 28.2959 26.1738 28.2322 26.6185C28.0688 28.2224 26.9582 29.4784 25.694 29.4784C25.3679 29.4787 25.0472 29.3949 24.763 29.2351C23.1607 28.3514 22.803 26.5744 23.703 23.9529C23.7209 23.9022 23.7356 23.8598 23.7471 23.8238C23.7968 23.6834 23.8297 23.5376 23.845 23.3894C23.6552 23.3982 23.4681 23.4385 23.2913 23.5086C22.9954 23.6264 22.6805 23.6895 22.362 23.6948C22.0723 23.6902 21.7865 23.627 21.5218 23.5091C21.2571 23.3912 21.019 23.221 20.8217 23.0088C20.4951 23.391 20.0263 23.7177 19.0659 23.7258H19.0349H18.95L24.5588 40.6766L30.1122 23.7275L30.0534 23.7242Z" fill="white"/>
    <path d="M30.968 18.5334C31.6573 17.0634 31.7978 15.4545 31.3584 13.7101C30.994 12.3027 30.2099 11.0395 29.1103 10.0883C28.0107 9.13724 26.6476 8.5433 25.2024 8.38547C24.2593 8.27714 23.3042 8.35615 22.3917 8.61796C21.4793 8.87977 20.6276 9.31924 19.8854 9.91112C19.1433 10.503 18.5254 11.2356 18.0672 12.067C17.609 12.8983 17.3195 13.812 17.2154 14.7555C17.101 15.8213 17.2203 16.8993 17.5649 17.9143C17.6694 18.2173 17.7938 18.513 17.9373 18.7996C17.6 19.0006 17.3207 19.2856 17.1266 19.6269C16.9325 19.9681 16.8302 20.3539 16.8299 20.7465C16.8299 21.9993 17.8099 22.7882 19.0594 22.7768C20.5196 22.7653 19.9087 21.8294 20.9982 21.9846C21.4555 22.0499 21.7054 23.0969 22.9582 22.6216C23.9382 22.2508 25.2138 22.3178 24.6323 24.0916C24.4298 24.7123 23.3649 27.3795 25.2122 28.3971C26.0876 28.8871 27.1607 27.9185 27.3012 26.5057C27.3521 26.1905 27.3354 25.8682 27.2522 25.56C26.968 24.6927 25.8753 24.1651 26.0158 23.4138C26.1481 22.7065 27.2734 22.3292 27.9921 22.4338C28.6634 22.5334 28.6079 23.0038 29.8998 22.7915C31.1363 22.5873 32.1685 21.7755 32.1685 20.5228C32.1663 20.1138 32.0536 19.7129 31.8423 19.3627C31.631 19.0125 31.3289 18.726 30.968 18.5334ZM30.0256 15.2667C29.7626 14.6673 29.5356 14.0972 29.2547 13.5729C29.1216 13.3139 28.9749 13.062 28.8153 12.8183C28.6571 12.5833 28.4847 12.358 28.2992 12.1438C27.9189 11.7199 27.4787 11.354 26.9925 11.0576C26.4689 10.741 25.9118 10.4836 25.3314 10.2899C25.9807 10.13 26.6628 10.1664 27.2914 10.3945C27.9438 10.6203 28.5274 11.0094 28.9868 11.5247C29.2108 11.7848 29.4058 12.0685 29.5683 12.3708C29.6464 12.5213 29.7156 12.6762 29.7757 12.8347L29.8639 13.0699L29.9309 13.3116C30.1075 13.947 30.1399 14.6139 30.0256 15.2634V15.2667Z" fill="white"/>
</svg>
