<svg width="1920" height="690" viewBox="0 0 1920 690" fill="none" xmlns="http://www.w3.org/2000/svg">
    <rect y="110" width="1921" height="250" fill="#FF006A"/>
    <path opacity="0.25" d="M1921 110L1921 63.7101C1844.5 41.5101 1755.17 31.5401 1668.07 35.7101C1555.43 41.0801 1449.83 69.02 1337.02 73.21C1218.81 77.57 1100.83 56.33 987.714 37.95C876.824 19.95 766.319 13.07 652.5 24.87C594.63 30.87 540.682 42.71 485.293 54.21C336.992 84.9999 139.273 124.29 4.84561e-05 57.5299L4.3869e-05 110L1921 110Z" fill="#FF006A"/>
    <path opacity="0.5" d="M1921 110L1921 94.19C1900.19 73.08 1876.75 53.1401 1844.66 37.9501C1761.86 -1.26986 1656.86 -0.999866 1561.48 18.4201C1511.62 28.5701 1465.29 44.4901 1417.94 58.22C1352.43 77.22 1282.3 104.22 1208.5 107.89C1150.45 110.74 1095 98.4699 1050.66 76.33C999.8 50.94 950.895 14.3301 884.765 3.33006C820.027 -7.45993 754.537 10.02 694.057 27.61C633.578 45.2 573.739 66.6099 506.888 70.6599C411.27 76.5099 325.545 47.7799 236.507 31.82C188.162 23.16 142.058 25.65 97.0906 39.3199C61.1839 50.2099 20.2506 66.2499 4.57434e-05 88.5599L4.3869e-05 110L1921 110Z" fill="#FF006A"/>
    <path d="M1921 110L1921 104.37C1680.99 51.0001 1418.19 38.6801 1159.28 67.43C1090.44 75.07 1024.44 87.55 954.993 93.8899C860.544 102.52 774.931 81.6499 689.959 58.49C595.622 32.78 502.662 14.76 398.287 20C259.767 27 122.208 65.7099 4.43227e-05 104.81L4.3869e-05 110L1921 110Z" fill="#FF006A"/>
</svg>
